<svg width="130" height="170" viewBox="0 0 130 130" fill="currentColor" xmlns="http://www.w3.org/2000/svg">
<path fill-rule="evenodd" clip-rule="evenodd" d="M54.3429 1.48903C64.5144 10.4755 70.2313 23.1116 72.8118 36.8876C76.7082 57.6922 73.4558 81.101 67.4319 98.6575C63.647 109.692 57.3978 115.892 51.3502 125.802C51.1055 126.203 51.2321 126.727 51.6336 126.972C52.0329 127.216 52.5588 127.09 52.8014 126.688C58.9198 116.663 65.2121 110.373 69.042 99.2092C75.1496 81.408 78.4342 57.6708 74.4841 36.5742C71.8328 22.4182 65.9227 9.44938 55.4699 0.213842C55.1179 -0.097444 54.5812 -0.0652755 54.2699 0.2868C53.9586 0.638875 53.9908 1.17774 54.3429 1.48903Z" fill="currentColor"/>
<path fill-rule="evenodd" clip-rule="evenodd" d="M51.8912 129.085C51.9148 129.051 52.0671 128.819 52.2153 128.638C52.825 127.887 54.0121 126.67 55.6008 125.223C60.9356 120.375 70.7787 112.969 78.8915 112.226C79.3595 112.183 79.703 111.769 79.66 111.301C79.6171 110.833 79.2048 110.487 78.7368 110.53C70.2956 111.303 60.006 118.92 54.4565 123.965C53.7137 124.641 53.0526 125.27 52.4944 125.83C52.9753 123.462 53.5162 121.112 54.0851 118.761C55.7253 111.994 55.7424 105.801 54.3449 98.9266C54.2526 98.4672 53.8018 98.1689 53.3423 98.2633C52.8829 98.3556 52.5845 98.8064 52.679 99.2658C54.0229 105.882 54.01 111.846 52.4321 118.359C51.6894 121.432 50.9938 124.508 50.412 127.614C50.354 127.924 50.2123 128.729 50.2102 128.844C50.1973 129.506 50.734 129.669 50.8542 129.699C50.9122 129.714 51.6421 129.858 51.8912 129.085ZM50.2917 128.505C50.2853 128.527 50.2767 128.548 50.2703 128.572C50.2745 128.553 50.2832 128.531 50.2917 128.505Z" fill="currentColor"/>
</svg>
